<svg width="38" height="24" viewBox="0 0 38 24" fill="none" xmlns="http://www.w3.org/2000/svg">
<path d="M34.3917 0H3.6083C3.48009 0 3.35165 0 3.22367 0.000747416C3.11549 0.00151748 3.00756 0.00271788 2.89963 0.00566224C2.66423 0.0120266 2.42682 0.0259104 2.19438 0.0676751C1.95821 0.110165 1.73845 0.17947 1.52406 0.288593C1.3133 0.395745 1.12034 0.535897 0.953117 0.703137C0.785825 0.870377 0.645631 1.06296 0.53847 1.27389C0.429292 1.48822 0.35992 1.70798 0.317713 1.94426C0.275711 2.1767 0.26173 2.41399 0.255387 2.64907C0.252487 2.75697 0.251243 2.86487 0.250538 2.97274C0.249791 3.10096 0.25004 3.22909 0.25004 3.35753V20.6427C0.25004 20.7712 0.249791 20.8991 0.250538 21.0275C0.251243 21.1354 0.252487 21.2433 0.255387 21.3512C0.26173 21.5861 0.275711 21.8234 0.317713 22.0557C0.35992 22.2921 0.429292 22.5118 0.53847 22.7261C0.645631 22.9371 0.785825 23.1299 0.953117 23.2969C1.12034 23.4644 1.3133 23.6045 1.52406 23.7114C1.73845 23.8208 1.95821 23.8902 2.19438 23.9326C2.42682 23.9741 2.66423 23.9882 2.89963 23.9946C3.00756 23.9971 3.11549 23.9985 3.22367 23.999C3.35165 24 3.48009 24 3.6083 24H34.3917C34.5197 24 34.6482 24 34.7761 23.999C34.884 23.9985 34.992 23.9971 35.1004 23.9946C35.3353 23.9882 35.5727 23.9741 35.8057 23.9326C36.0415 23.8902 36.2613 23.8208 36.4757 23.7114C36.6867 23.6045 36.8791 23.4644 37.0467 23.2969C37.2137 23.1299 37.3539 22.9371 37.4613 22.7261C37.5708 22.5118 37.6401 22.2921 37.6821 22.0557C37.7241 21.8234 37.7377 21.5861 37.7441 21.3512C37.7471 21.2433 37.7485 21.1354 37.749 21.0275C37.75 20.8991 37.75 20.7712 37.75 20.6427V3.35753C37.75 3.22909 37.75 3.10096 37.749 2.97274C37.7485 2.86487 37.7471 2.75697 37.7441 2.64907C37.7377 2.41399 37.7241 2.1767 37.6821 1.94426C37.6401 1.70798 37.5708 1.48822 37.4613 1.27389C37.3539 1.06296 37.2137 0.870377 37.0467 0.703137C36.8791 0.535897 36.6867 0.395745 36.4757 0.288593C36.2613 0.17947 36.0415 0.110165 35.8057 0.0676751C35.5727 0.0259104 35.3353 0.0120266 35.1004 0.00566224C34.992 0.00271788 34.884 0.00151748 34.7761 0.000747416C34.6482 0 34.5197 0 34.3917 0Z" fill="#0E1D31"/>
<path d="M34.3913 0.796875L34.77 0.7976C34.8726 0.798325 34.9752 0.799434 35.0783 0.802243C35.2578 0.80709 35.4677 0.816806 35.6633 0.851867C35.8334 0.882488 35.9761 0.929054 36.1129 0.998723C36.2481 1.06737 36.3719 1.15733 36.48 1.26526C36.5885 1.3739 36.6786 1.49788 36.7482 1.63448C36.8175 1.77026 36.8638 1.91218 36.8942 2.08345C36.9292 2.27692 36.9389 2.48733 36.9438 2.66782C36.9466 2.76969 36.9479 2.87157 36.9484 2.97586C36.9494 3.102 36.9494 3.22806 36.9494 3.35444V20.6396C36.9494 20.766 36.9494 20.8919 36.9484 21.0207C36.9479 21.1225 36.9466 21.2244 36.9438 21.3265C36.9389 21.5067 36.9292 21.717 36.8938 21.9127C36.8638 22.0816 36.8175 22.2236 36.7478 22.36C36.6785 22.4963 36.5885 22.6201 36.4805 22.7281C36.3717 22.8368 36.2483 22.9265 36.1116 22.9958C35.9757 23.0651 35.8333 23.1117 35.6649 23.142C35.4653 23.1775 35.2466 23.1873 35.0819 23.1918C34.9783 23.1941 34.8751 23.1955 34.7695 23.196C34.6436 23.197 34.5173 23.197 34.3913 23.197H3.60789C3.60621 23.197 3.60458 23.197 3.60288 23.197C3.47841 23.197 3.35369 23.197 3.22695 23.196C3.12362 23.1955 3.02051 23.1941 2.92083 23.1919C2.75236 23.1873 2.53353 23.1775 2.33554 23.1422C2.16569 23.1117 2.0233 23.0651 1.88564 22.9949C1.75019 22.9262 1.62687 22.8366 1.5181 22.7277C1.41017 22.62 1.32047 22.4965 1.25112 22.3601C1.18171 22.2237 1.13526 22.0814 1.10472 21.9104C1.06942 21.7151 1.05973 21.5056 1.05488 21.3266C1.05212 21.2241 1.05096 21.1217 1.0503 21.0198L1.0498 20.719L1.04983 20.6396V3.35444L1.0498 3.27503L1.05028 2.97491C1.05096 2.87243 1.05212 2.76996 1.05488 2.66757C1.05973 2.48839 1.06942 2.27884 1.10502 2.08184C1.13528 1.91245 1.18171 1.77008 1.25149 1.63307C1.32029 1.49766 1.41014 1.37404 1.51864 1.2656C1.62671 1.15751 1.75043 1.06767 1.88675 0.99836C2.02294 0.929032 2.1656 0.882488 2.33545 0.851935C2.53115 0.816783 2.74119 0.80709 2.92108 0.80222C3.02362 0.799434 3.12616 0.798325 3.22793 0.797622L3.60789 0.796875H34.3913Z" fill="white"/>
<path d="M10.4873 8.06957C10.8084 7.66808 11.0263 7.129 10.9688 6.57812C10.4988 6.60149 9.92523 6.88812 9.59316 7.28993C9.29499 7.63401 9.03109 8.19566 9.09989 8.72345C9.62752 8.7692 10.1547 8.4598 10.4873 8.06957Z" fill="#0E1D31"/>
<path d="M10.9629 8.82337C10.1966 8.77774 9.54514 9.25812 9.17922 9.25812C8.8131 9.25812 8.25276 8.84636 7.6467 8.85746C6.85788 8.86904 6.12595 9.31491 5.72565 10.0241C4.90232 11.4427 5.50838 13.547 6.30903 14.7024C6.69784 15.2741 7.16642 15.9034 7.78386 15.8808C8.36723 15.858 8.59589 15.5032 9.305 15.5032C10.0136 15.5032 10.2196 15.8808 10.8371 15.8694C11.4775 15.858 11.8779 15.2975 12.2667 14.7253C12.7127 14.0737 12.8953 13.4445 12.9068 13.41C12.8953 13.3986 11.6719 12.9294 11.6606 11.5225C11.649 10.3446 12.6211 9.78424 12.6668 9.74949C12.1179 8.93788 11.2602 8.84636 10.9629 8.82337Z" fill="#0E1D31"/>
<path d="M17.6339 7.23438C19.2994 7.23438 20.459 8.38202 20.459 10.0529C20.459 11.7297 19.2755 12.8833 17.5922 12.8833H15.7483V15.8148H14.416V7.23438L17.6339 7.23438ZM15.7483 11.7654H17.2769C18.4368 11.7654 19.097 11.1411 19.097 10.0589C19.097 8.97671 18.4368 8.35828 17.2829 8.35828H15.7483V11.7654Z" fill="#0E1D31"/>
<path d="M20.8076 14.0359C20.8076 12.9417 21.6463 12.2698 23.1334 12.1865L24.8463 12.0855V11.6039C24.8463 10.9081 24.3764 10.4919 23.5914 10.4919C22.8477 10.4919 22.3838 10.8486 22.2709 11.4076H21.0575C21.1289 10.2778 22.0924 9.44531 23.6389 9.44531C25.1556 9.44531 26.1251 10.2481 26.1251 11.5027V15.8138H24.8938V14.7851H24.8642C24.5015 15.4808 23.7103 15.9208 22.8895 15.9208C21.6642 15.9208 20.8076 15.1597 20.8076 14.0359ZM24.8463 13.471V12.9775L23.3057 13.0726C22.5384 13.1261 22.1043 13.465 22.1043 14.0002C22.1043 14.5472 22.5563 14.904 23.2463 14.904C24.1444 14.904 24.8463 14.2856 24.8463 13.471Z" fill="#0E1D31"/>
<path d="M27.2876 18.1192V17.0786C27.3826 17.1023 27.5967 17.1023 27.7038 17.1023C28.2986 17.1023 28.6198 16.8526 28.816 16.2105C28.816 16.1985 28.9291 15.8299 28.9291 15.8239L26.6689 9.5625H28.0606L29.643 14.6526H29.6666L31.2489 9.5625H32.6051L30.2614 16.145C29.7263 17.6614 29.1076 18.1489 27.811 18.1489C27.7038 18.1489 27.3826 18.137 27.2876 18.1192Z" fill="#0E1D31"/>
</svg>
