<svg width="309" height="41" viewBox="0 0 309 41" fill="none" xmlns="http://www.w3.org/2000/svg">
<g clip-path="url(#clip0_2116_2902)">
<path d="M35.6198 32.7537C33.1439 35.8386 29.8088 38.12 26.0363 39.3095C22.2638 40.4989 18.2234 40.543 14.4258 39.4362C10.6282 38.3293 7.24419 36.1212 4.70155 33.0911C2.15891 30.061 0.571883 26.345 0.141157 22.4129C-0.289568 18.4809 0.455351 14.5094 2.28172 11.0007C4.10808 7.49203 6.93387 4.6037 10.4017 2.70097C13.8696 0.798249 17.8238 -0.0334177 21.7644 0.311142C25.7049 0.655701 29.4548 2.16101 32.5398 4.63672C34.5883 6.28062 36.2929 8.31192 37.5564 10.6146C38.8198 12.9173 39.6173 15.4464 39.9033 18.0573C40.1893 20.6682 39.9582 23.3099 39.2233 25.8315C38.4883 28.3532 37.2639 30.7053 35.6198 32.7537V32.7537Z" fill="#74A539"/>
<path d="M31.8188 5.53084C28.9093 3.1946 25.3723 1.77363 21.6551 1.44764C17.9379 1.12164 14.2076 1.90526 10.9358 3.69939C7.66399 5.49353 4.99771 8.2176 3.27412 11.5271C1.55054 14.8366 0.847066 18.5829 1.25267 22.2922C1.65827 26.0015 3.15474 29.5073 5.55281 32.3661C7.95089 35.2249 11.1429 37.3084 14.7251 38.3531C18.3073 39.3977 22.1188 39.3567 25.6777 38.235C29.2366 37.1134 32.3829 34.9617 34.7188 32.0518C37.8504 28.1501 39.3041 23.1643 38.7603 18.1909C38.2164 13.2175 35.7196 8.66365 31.8188 5.53084V5.53084ZM33.5918 31.1438C31.436 33.8298 28.5321 35.8163 25.2474 36.8519C21.9626 37.8875 18.4445 37.9259 15.138 36.9621C11.8315 35.9983 8.88496 34.0756 6.67112 31.4372C4.45728 28.7988 3.07553 25.5632 2.70059 22.1395C2.32565 18.7159 2.97436 15.2579 4.5647 12.2029C6.15504 9.1479 8.61557 6.6331 11.6351 4.9765C14.6547 3.3199 18.0977 2.59591 21.5288 2.89607C24.9598 3.19624 28.2248 4.50708 30.9108 6.66284C32.6945 8.09425 34.1787 9.86297 35.2788 11.868C36.3788 13.8731 37.0731 16.0752 37.3221 18.3485C37.5711 20.6219 37.3698 22.9221 36.7297 25.1177C36.0897 27.3133 35.0234 29.3613 33.5918 31.1448V31.1438Z" fill="white"/>
<path d="M19.1318 9.01364C19.1315 9.25801 19.2225 9.49368 19.387 9.67443C19.5514 9.85517 19.7775 9.96795 20.0208 9.99064V8.31764C19.1318 8.10464 18.7278 7.83864 18.7278 7.10064C18.7238 6.75354 18.8577 6.41905 19.1002 6.17061C19.3426 5.92218 19.6737 5.78012 20.0208 5.77564V5.35864H20.3688V5.78164C20.6868 5.81841 20.9829 5.96197 21.2087 6.18885C21.4345 6.41573 21.5766 6.7125 21.6118 7.03064H21.0748C21.052 6.84865 20.9709 6.67892 20.8436 6.54681C20.7164 6.4147 20.5498 6.32729 20.3688 6.29764V7.85064L20.7468 7.95064C21.0207 8.00648 21.268 8.15244 21.4492 8.36523C21.6305 8.57801 21.7352 8.84537 21.7468 9.12464C21.7486 9.30601 21.714 9.4859 21.645 9.65365C21.576 9.8214 21.474 9.9736 21.3452 10.1012C21.2163 10.2289 21.0632 10.3294 20.8948 10.3968C20.7264 10.4642 20.5462 10.4971 20.3648 10.4936V11.0106H20.0168V10.4936C19.6351 10.4748 19.2749 10.3109 19.0098 10.0355C18.7448 9.76007 18.5949 9.39385 18.5908 9.01164L19.1318 9.01364ZM20.0208 6.27964C19.9225 6.28076 19.8254 6.30161 19.7352 6.34095C19.6451 6.38028 19.5638 6.4373 19.4961 6.50864C19.4284 6.57997 19.3757 6.66417 19.3411 6.75624C19.3065 6.84831 19.2908 6.94638 19.2948 7.04464C19.2948 7.49264 19.5948 7.63064 20.0208 7.75764V6.27964ZM20.3688 9.99064C20.8418 9.95264 21.1828 9.72564 21.1828 9.18364C21.1828 8.70464 20.8298 8.53964 20.3688 8.40664V9.99064Z" fill="white"/>
<path d="M9.79575 28.5746H10.1617C9.97043 28.2817 9.86638 27.9404 9.86175 27.5906C9.86651 27.4101 9.90819 27.2324 9.98422 27.0686C10.0603 26.9047 10.169 26.7582 10.3038 26.638C10.4387 26.5178 10.5967 26.4265 10.7681 26.3697C10.9396 26.3128 11.1208 26.2917 11.3007 26.3076C11.5129 26.2911 11.7259 26.3232 11.9238 26.4014C12.1217 26.4796 12.2991 26.6018 12.4427 26.7589C12.5862 26.9159 12.6921 27.1036 12.7522 27.3077C12.8124 27.5117 12.8252 27.7268 12.7897 27.9366H12.2537C12.2337 27.2116 11.9377 26.7816 11.3317 26.7816C11.2182 26.776 11.1046 26.793 10.9976 26.8316C10.8906 26.8703 10.7924 26.9298 10.7087 27.0068C10.6249 27.0837 10.5573 27.1766 10.5098 27.2799C10.4622 27.3832 10.4357 27.495 10.4317 27.6086C10.4577 27.9529 10.5705 28.2849 10.7597 28.5736H11.7597V28.8576H10.8947C10.9743 29.0032 11.0175 29.1658 11.0207 29.3316C11.0037 29.5739 10.9281 29.8084 10.8004 30.015C10.6727 30.2216 10.4968 30.394 10.2877 30.5176L10.3007 30.5306C10.5058 30.422 10.732 30.3596 10.9637 30.3476C11.1674 30.3528 11.3694 30.3864 11.5637 30.4476C11.7338 30.5113 11.9125 30.5494 12.0937 30.5606C12.3014 30.5452 12.4985 30.4632 12.6557 30.3266L12.9267 30.7446C12.6629 30.9465 12.3367 31.0495 12.0047 31.0356C11.7931 31.0228 11.5847 30.9776 11.3867 30.9016C11.1739 30.8234 10.9503 30.7783 10.7237 30.7676C10.4957 30.7728 10.2751 30.8501 10.0937 30.9886L9.79375 30.5726C9.99153 30.4548 10.1579 30.2908 10.2785 30.0947C10.3992 29.8987 10.4706 29.6763 10.4867 29.4466C10.4731 29.2422 10.4194 29.0424 10.3287 28.8586H9.79175L9.79575 28.5746Z" fill="white"/>
<path d="M30.1018 26.9488C29.9879 26.8204 29.8497 26.7159 29.6952 26.6413C29.5408 26.5666 29.3731 26.5233 29.2018 26.5138C29.0486 26.512 28.8973 26.5475 28.7609 26.6171C28.6245 26.6868 28.5071 26.7886 28.4188 26.9138C28.2371 27.1642 28.1162 27.4535 28.0658 27.7587H29.8518L29.6808 28.1438H28.0208C28.0148 28.2138 28.0148 28.2828 28.0148 28.3438C28.0136 28.3882 28.0156 28.4326 28.0208 28.4768H29.5928L29.4288 28.8608H28.0548C28.1938 29.7608 28.5908 30.2178 29.2548 30.2178C29.4409 30.2228 29.6254 30.1815 29.7918 30.0978C29.9504 30.0045 30.0968 29.892 30.2278 29.7628V30.4268C29.9376 30.6115 29.5997 30.7074 29.2558 30.7027C28.2278 30.7027 27.6208 30.0918 27.4448 28.8608H26.9578L27.1288 28.4768H27.4188C27.4137 28.4346 27.4117 28.3922 27.4128 28.3498C27.4113 28.283 27.4133 28.2163 27.4188 28.1498H26.9578L27.1228 27.7647H27.4628C27.5347 27.3108 27.7341 26.8867 28.0378 26.5418C28.1914 26.3734 28.3799 26.2404 28.59 26.152C28.8001 26.0636 29.0269 26.0219 29.2548 26.0297C29.6679 26.0405 30.0672 26.1804 30.3968 26.4298L30.1018 26.9488Z" fill="white"/>
<path d="M8.73893 17.7876H7.84893V17.4086H8.73893V17.1436L8.62593 16.9356H7.84893V16.5576H8.42993L7.27393 14.3796H7.96193L9.06193 16.6076L10.1289 14.3796H10.7849L9.66093 16.5576H10.2479V16.9376H9.44793L9.33393 17.1456V17.4106H10.2429V17.7896H9.33393V18.8896H8.73393L8.73893 17.7876Z" fill="white"/>
<path d="M31.5718 15.8168H31.1998C31.1047 15.8092 31.0103 15.8394 30.9372 15.9008C30.8641 15.9621 30.818 16.0497 30.8088 16.1448L30.6088 17.0158H31.2528L31.1648 17.4448H30.5338L30.1868 19.4088C29.9868 20.5568 29.6868 20.8918 28.9868 20.8918H28.5698L28.6588 20.4178C29.3218 20.4178 29.4288 20.3548 29.5368 19.7738L29.9778 17.4448H29.3968L29.4788 17.0158H30.0528L30.2168 16.1578C30.2487 15.9255 30.3659 15.7133 30.5455 15.5627C30.7252 15.412 30.9545 15.3336 31.1888 15.3428H31.6558L31.5718 15.8168Z" fill="white"/>
<path d="M20.0569 12.0408C19.2545 12.0417 18.4601 12.2009 17.7194 12.5093C16.9786 12.8177 16.3059 13.2692 15.7399 13.838C15.1739 14.4068 14.7257 15.0817 14.421 15.824C14.1162 16.5662 13.9609 17.3614 13.9639 18.1638C13.9639 20.3098 16.6279 23.1348 16.6279 24.5268V25.7768C16.6284 26.1014 16.7577 26.4126 16.9873 26.642C17.217 26.8715 17.5283 27.0005 17.8529 27.0008H22.2609C22.422 27.0012 22.5816 26.9698 22.7305 26.9085C22.8795 26.8472 23.0149 26.7571 23.1291 26.6435C23.2432 26.5298 23.3338 26.3947 23.3957 26.246C23.4576 26.0973 23.4896 25.9379 23.4899 25.7768V24.5268C23.4899 23.1348 26.1539 20.3098 26.1539 18.1638C26.1569 17.361 26.0015 16.5656 25.6965 15.823C25.3915 15.0805 24.9429 14.4054 24.3765 13.8366C23.8101 13.2678 23.1369 12.8163 22.3957 12.5082C21.6544 12.2 20.8597 12.0412 20.0569 12.0408V12.0408ZM20.0569 31.7148C20.2983 31.7154 20.5375 31.6683 20.7606 31.5762C20.9837 31.484 21.1863 31.3486 21.3569 31.1778H18.7569C18.9278 31.3479 19.1306 31.4826 19.3537 31.5741C19.5768 31.6656 19.8158 31.712 20.0569 31.7108V31.7148ZM22.2569 27.4898H17.8529C17.6625 27.4968 17.4823 27.5774 17.3501 27.7145C17.2179 27.8517 17.144 28.0348 17.144 28.2253C17.144 28.4158 17.2179 28.5989 17.3501 28.736C17.4823 28.8732 17.6625 28.9538 17.8529 28.9608H22.2609C22.4513 28.9538 22.6315 28.8732 22.7637 28.736C22.8959 28.5989 22.9698 28.4158 22.9698 28.2253C22.9698 28.0348 22.8959 27.8517 22.7637 27.7145C22.6315 27.5774 22.4513 27.4968 22.2609 27.4898H22.2569ZM22.2569 29.3278H17.8529C17.658 29.3278 17.471 29.4052 17.3332 29.543C17.1953 29.6809 17.1179 29.8678 17.1179 30.0628C17.1179 30.2577 17.1953 30.4447 17.3332 30.5825C17.471 30.7203 17.658 30.7978 17.8529 30.7978H22.2609C22.4558 30.7978 22.6428 30.7203 22.7806 30.5825C22.9185 30.4447 22.9959 30.2577 22.9959 30.0628C22.9959 29.8678 22.9185 29.6809 22.7806 29.543C22.6428 29.4052 22.4558 29.3278 22.2609 29.3278H22.2569Z" fill="white"/>
<path d="M40.9548 7.64478H62.1598V10.7728H53.3218V33.7608H49.7938V10.7728H40.9548V7.64478Z" fill="#020617"/>
<path d="M79.1339 33.7618H75.9339V21.3218C75.9339 18.7388 75.2059 17.0658 72.1509 17.0658C69.5319 17.0658 66.8409 18.5928 66.8409 23.3948V33.7618H63.6409V7.64484L66.8409 7.23584V17.2838H66.9129C67.5126 16.3486 68.3348 15.5766 69.306 15.037C70.2772 14.4974 71.367 14.207 72.4779 14.1918C75.4239 14.1918 79.1339 15.3918 79.1339 20.8128V33.7618Z" fill="#020617"/>
<path d="M81.1428 11.2818V7.64478H84.3428V11.2818H81.1428ZM84.3428 33.7608H81.1428V14.7378H84.3428V33.7608Z" fill="#020617"/>
<path d="M101.701 33.7607H98.5008V22.0487C98.5008 18.7387 97.5558 17.0657 94.4268 17.0657C92.6078 17.0657 89.4078 18.2287 89.4078 23.3947V33.7607H86.2078V14.7347L89.2268 14.3467V17.4267H89.2988C89.9102 16.4501 90.7564 15.6421 91.7603 15.0765C92.7641 14.5109 93.8937 14.2057 95.0458 14.1887C97.9918 14.1887 101.702 15.3887 101.702 20.8097L101.701 33.7607Z" fill="#020617"/>
<path d="M119.348 33.7628H115.238L109.309 24.1628L106.654 26.5628V33.7628H103.562V7.64585L106.654 7.24585V22.7759L114.838 14.7369H118.916L111.641 21.8298L119.348 33.7628Z" fill="#020617"/>
<path d="M144.242 33.8447H139.767V14.1447H139.697L134.579 33.8447H130.285L125.272 14.1447H125.202V33.8447H120.729V7.53369H127.97L132.522 26.5337H132.592L137.074 7.53369H144.246L144.242 33.8447Z" fill="#70AA1E"/>
<path d="M162.771 30.0826C162.771 32.3526 163.271 32.8566 163.888 33.0726V33.8296H158.449C158.189 33.0984 158.032 32.3349 157.981 31.5606C157.223 32.4604 156.272 33.1772 155.199 33.6574C154.125 34.1376 152.956 34.3687 151.781 34.3336C148.899 34.3336 145.945 32.7136 145.945 28.7506C145.945 25.0046 148.323 23.0946 151.529 22.6266L156.067 21.9426C156.86 21.8346 157.832 21.5106 157.832 20.4306C157.832 18.3046 155.814 18.1966 154.518 18.1966C151.996 18.1966 151.564 19.7456 151.418 20.8626H146.562C147.138 14.9906 151.209 14.1626 155.136 14.1626C157.836 14.1626 162.772 14.9916 162.772 19.7106L162.771 30.0826ZM157.836 24.4996C157.336 24.8996 156.503 25.2206 154.414 25.5446C152.541 25.8686 150.992 26.3366 150.992 28.4266C150.976 28.7365 151.027 29.0461 151.139 29.3352C151.252 29.6243 151.424 29.8863 151.646 30.1039C151.867 30.3216 152.131 30.4901 152.422 30.5983C152.713 30.7064 153.023 30.7519 153.333 30.7316C155.567 30.7316 157.833 29.2906 157.833 26.9496L157.836 24.4996Z" fill="#70AA1E"/>
<path d="M165.246 14.6505H169.226V17.9675H169.298C170.344 16.0205 171.498 14.1445 174.564 14.1445C174.889 14.1505 175.215 14.1745 175.538 14.2165V19.3385C175.06 19.2779 174.578 19.2538 174.096 19.2665C170.164 19.2665 169.442 21.7185 169.442 23.8465V33.8375H165.242L165.246 14.6505Z" fill="#70AA1E"/>
<path d="M181.292 33.8426H177.244V7.53364L181.292 6.87964V22.2886L187.885 14.6726H193.485L186.472 22.4286L193.221 33.8426H187.765L183.321 25.8596L181.29 27.9596L181.292 33.8426Z" fill="#70AA1E"/>
<path d="M209.959 28.2147C209.465 30.0428 208.36 31.6468 206.828 32.7598C205.296 33.8729 203.429 34.4279 201.538 34.3327C196.138 34.3327 192.001 31.7417 192.001 23.8607C192.001 21.5607 192.793 14.1797 201.178 14.1797C204.957 14.1797 210.178 15.9797 210.178 24.7237V25.6237H196.613C196.757 27.0627 197.472 30.3017 201.538 30.3017C202.938 30.3017 204.808 29.5817 205.203 28.2147H209.959ZM205.419 22.3487C205.341 21.2534 204.85 20.2283 204.047 19.48C203.243 18.7316 202.186 18.3156 201.088 18.3156C199.99 18.3156 198.932 18.7316 198.129 19.48C197.325 20.2283 196.835 21.2534 196.757 22.3487H205.419Z" fill="#70AA1E"/>
<path d="M220.043 18.1836V14.6836H216.571V9.43457L212.522 10.0676V14.6826H208.722C209.605 15.6979 210.26 16.8916 210.642 18.1826H212.522V30.0266C212.522 32.4426 212.866 34.0526 217.102 34.0526H217.732C218.502 34.0526 219.273 34.0176 220.042 33.9826V30.2706C219.692 30.3056 219.342 30.3406 219.027 30.3406C217.027 30.3406 216.569 29.9206 216.569 28.8356V18.1836H220.043Z" fill="#70AA1E"/>
<path d="M232.867 20.7997C232.651 19.5747 232.146 17.9687 229.407 17.9687C226.668 17.9687 226.307 19.0137 226.307 19.8437C226.307 22.8717 238.307 20.6727 238.307 27.7377C238.307 33.3247 232.9 34.3377 229.907 34.3377C225.546 34.3377 221.732 33.3587 221.587 28.2377H225.925C225.925 29.8597 226.879 30.5137 230.051 30.5137C232.646 30.5137 233.259 29.2527 233.259 28.5307C233.259 25.3227 221.359 27.7387 221.359 20.5657C221.359 17.7547 223.126 14.1497 229.11 14.1497C232.858 14.1497 236.973 15.3947 237.37 20.8017L232.867 20.7997Z" fill="#70AA1E"/>
<path d="M243.71 9.70481C243.71 10.4107 243.501 11.1009 243.109 11.6879C242.717 12.275 242.159 12.7326 241.507 13.0028C240.855 13.2731 240.137 13.3439 239.445 13.2063C238.753 13.0688 238.117 12.7289 237.617 12.2298C237.118 11.7307 236.778 11.0948 236.64 10.4025C236.503 9.71011 236.573 8.99245 236.843 8.34024C237.113 7.68803 237.571 7.13057 238.158 6.73836C238.745 6.34615 239.435 6.13681 240.141 6.13681C240.611 6.13035 241.078 6.21822 241.514 6.39523C241.95 6.57224 242.346 6.8348 242.678 7.1674C243.011 7.5 243.274 7.8959 243.451 8.33171C243.628 8.76752 243.716 9.23441 243.71 9.70481V9.70481ZM237.129 9.70481C237.129 10.5036 237.446 11.2698 238.011 11.8346C238.576 12.3995 239.342 12.7168 240.141 12.7168C240.94 12.7168 241.706 12.3995 242.271 11.8346C242.835 11.2698 243.153 10.5036 243.153 9.70481C243.153 8.90597 242.835 8.13986 242.271 7.575C241.706 7.01014 240.94 6.69281 240.141 6.69281C239.342 6.69281 238.576 7.01014 238.011 7.575C237.446 8.13986 237.129 8.90597 237.129 9.70481V9.70481ZM239.355 11.7668H238.845V7.64381H240.429C241.36 7.64381 241.773 8.04381 241.773 8.78481C241.784 9.07382 241.682 9.35583 241.489 9.57081C241.295 9.78579 241.025 9.91675 240.737 9.93581L241.964 11.7678H241.369L240.209 9.93581H239.354L239.355 11.7668ZM240.025 9.50281C240.649 9.50281 241.263 9.48481 241.263 8.78381C241.263 8.20781 240.784 8.07281 240.284 8.07281H239.354V9.50381L240.025 9.50281Z" fill="#70AA1E"/>
</g>
<line x1="259.317" y1="0.237893" x2="259.023" y2="40.2368" stroke="#9FA5AD" stroke-width="0.625"/>
<g clip-path="url(#clip1_2116_2902)">
<path d="M286.185 39.937C286.486 39.3105 286.864 38.6458 287.319 37.9413C289.927 33.8939 292.804 30.1336 295.949 26.6614C296.014 26.5887 296.008 26.5816 295.928 26.6374C293.535 28.362 291.36 30.6449 288.77 32.0594C287.964 32.5007 286.971 32.4023 287.031 31.2573C287.144 29.0692 289.364 26.3476 290.899 24.826C291.08 24.6478 291.265 24.514 291.454 24.4281C291.495 24.4094 291.538 24.4068 291.582 24.4219C291.763 24.483 291.765 24.6567 291.651 24.7799C291.305 25.1583 290.961 25.5376 290.619 25.9178C289.758 26.8749 287.089 30.3241 287.664 31.6366C287.68 31.6756 287.71 31.6987 287.75 31.7093C288.306 31.8405 289.318 31.0889 289.808 30.73C291.468 29.5097 293.129 28.292 294.793 27.0779C295.523 26.5453 296.406 25.9958 297.2 25.4268C297.276 25.3719 297.376 25.4534 297.338 25.5394C297.216 25.8177 297.049 26.08 296.839 26.3228C294.542 28.993 292.352 31.751 290.269 34.5966C290.262 34.6081 290.263 34.6232 290.273 34.6312C290.283 34.6401 290.298 34.6401 290.308 34.6312C291.212 33.8451 292.551 32.9544 293.794 32.9704C293.84 32.9713 293.868 32.9943 293.874 33.0404C293.881 33.0856 293.849 33.1228 293.804 33.1299C292.352 33.3869 291.095 34.5151 290.036 35.5679C288.664 36.9336 287.553 38.4951 286.704 40.2525" fill="#020617"/>
<path d="M296.301 33.16C295.883 33.5579 295.406 33.8539 294.872 34.0471C293.858 34.4122 293.456 33.7954 293.737 32.8729C293.976 32.0903 294.719 30.6582 295.5 30.3232C295.935 30.1362 296.199 30.5368 296.143 30.9453C296.056 31.5914 295.382 32.5919 294.609 32.2401C294.569 32.2215 294.537 32.2312 294.515 32.2729C294.322 32.638 294.202 33.0279 294.156 33.4418C294.141 33.5765 294.271 33.6829 294.401 33.643C295.627 33.2628 296.537 32.5441 297.383 31.6818C297.816 31.2386 299.547 30.3108 299.604 31.563C299.61 31.7004 299.441 31.7686 299.349 31.6649C298.607 30.8203 297.236 32.5432 296.952 33.1024C296.938 33.1299 296.97 33.1582 296.997 33.1414C297.495 32.8241 298.925 31.758 299.499 31.9565C300.134 32.1745 299.435 32.8214 299.803 33.0767C299.861 33.1157 299.935 33.1201 299.997 33.0882C300.561 32.7878 301.088 32.4404 301.58 32.0469C302.014 31.6986 302.096 31.1296 302.462 30.7149C302.491 30.6821 302.526 30.6697 302.569 30.6777C302.895 30.7326 302.653 31.1509 302.621 31.353C302.612 31.4079 302.629 31.4194 302.675 31.3866C303.221 30.9958 303.831 30.7681 304.505 30.7034C304.537 30.7007 304.567 30.7211 304.575 30.753C304.582 30.784 304.566 30.8168 304.536 30.8292C303.208 31.3822 302.234 32.2826 301.616 33.5287C301.499 33.7671 301.35 33.8645 301.107 33.6962C301 33.6208 300.963 33.479 301.024 33.3629L301.536 32.389C301.573 32.3163 301.563 32.3083 301.502 32.3642C301.131 32.7027 300.749 33.0244 300.356 33.3301C299.632 33.8894 298.489 33.954 299.19 32.5928C299.218 32.5405 299.16 32.4847 299.108 32.5122C298.56 32.7966 297.217 33.8096 296.658 33.7476C296.614 33.7422 296.575 33.7254 296.541 33.6962C296.391 33.5623 296.336 33.3984 296.375 33.2025C296.393 33.1139 296.369 33.1015 296.302 33.1635M295.67 30.527L294.661 31.9335C294.656 31.9423 294.657 31.9521 294.665 31.9583L294.67 31.9618C294.813 32.0628 295.142 31.8457 295.408 31.4753L295.476 31.3804C295.741 31.0109 295.841 30.628 295.699 30.527L295.694 30.5235C295.687 30.5181 295.675 30.5199 295.67 30.527Z" fill="#020617"/>
<path d="M305.896 32.6424C305.519 32.3729 304.976 32.3056 304.656 32.0247C303.89 31.352 306.131 30.2593 306.665 31.002C306.73 31.0932 306.736 31.2031 306.651 31.2749C306.614 31.305 306.578 31.3077 306.54 31.282C306.065 30.9771 305.396 31.2971 304.994 31.6002C304.936 31.6436 304.951 31.7349 305.022 31.7561C305.487 31.8979 306.152 32.0876 306.385 32.5599C306.403 32.5936 306.44 32.6113 306.477 32.6034C306.696 32.552 308.909 32.0557 308.846 32.2701C308.839 32.2976 308.816 32.3189 308.789 32.3251L306.511 32.8577C306.475 32.8666 306.451 32.8878 306.44 32.9242C306.176 33.7537 304.707 34.6 303.886 34.2633C303.85 34.25 303.822 34.226 303.801 34.1924C303.338 33.4603 305.438 32.8985 305.883 32.7354C305.944 32.7115 305.95 32.6814 305.896 32.6432M305.754 33.0527L304.258 33.7714C304.249 33.775 304.245 33.7865 304.249 33.7962C304.305 33.9106 304.687 33.8423 305.101 33.6429L305.126 33.6305C305.543 33.4311 305.834 33.1768 305.779 33.0615C305.774 33.0518 305.763 33.0483 305.754 33.0527Z" fill="#020617"/>
<path d="M301.758 11.8306C301.496 11.7054 301.229 11.5898 300.958 11.484C299.155 10.7786 297.183 10.5074 295.256 10.6996C294.626 10.7616 294.037 10.9002 293.431 11.0693C293.28 11.1119 292.229 11.3162 292.208 11.4974C292.212 11.4706 292.814 6.30664 292.814 6.30664H306.67V0.235352H287.397L286.291 9.7035V0.388593H279.47C278.017 1.64615 275.5 2.69087 274.004 3.40356V10.488C275.857 10.0538 279.216 9.02729 280.045 8.46905V36.2301H286.293V19.2677H291.3V19.2616C291.646 18.7679 292.106 18.3629 292.607 18.0308C294.182 16.9886 296.057 16.3318 297.944 16.8098C299.754 17.2695 301.281 18.5587 302.074 20.2407C302.698 21.5664 302.868 23.089 302.625 24.5339C302.42 25.7537 301.91 26.9152 301.147 27.8663H308.036C308.196 27.4309 308.338 26.9882 308.451 26.537C309.027 24.2481 308.968 21.812 308.29 19.5523C307.291 16.2138 304.917 13.3424 301.758 11.8319V11.8306Z" fill="#020617"/>
</g>
<defs>
<clipPath id="clip0_2116_2902">
<rect width="243.688" height="40" fill="white" transform="translate(0.0222168 0.235107)"/>
</clipPath>
<clipPath id="clip1_2116_2902">
<rect width="34.8435" height="39.9998" fill="white" transform="translate(274.004 0.235352)"/>
</clipPath>
</defs>
</svg>
