<svg width="36" height="22" viewBox="0 0 36 22" fill="none" xmlns="http://www.w3.org/2000/svg">
<path d="M22.699 2.48438H13.3018V19.5274H22.699V2.48438Z" fill="#F16022"/>
<path d="M13.8981 11.0029C13.8981 7.54539 15.5022 4.46604 18.0001 2.48141C16.1733 1.03003 13.8683 0.164062 11.363 0.164062C5.43202 0.164062 0.624023 5.01677 0.624023 11.0029C0.624023 16.989 5.43202 21.8418 11.363 21.8418C13.8683 21.8418 16.1733 20.9758 18.0001 19.5244C15.5022 17.5397 13.8981 14.4605 13.8981 11.0029Z" fill="#E91D25"/>
<path d="M35.3761 11.0029C35.3761 16.989 30.5681 21.8418 24.6371 21.8418C22.1318 21.8418 19.8268 20.9758 18 19.5244C20.4979 17.5397 22.1019 14.4605 22.1019 11.0029C22.1019 7.54539 20.4979 4.46604 18 2.48141C19.8268 1.03003 22.1318 0.164062 24.6371 0.164062C30.5681 0.164062 35.3761 5.01677 35.3761 11.0029ZM34.3514 17.7193V17.3704H34.4908V17.2993H34.1358V17.3704H34.2753V17.7193H34.3514ZM35.0407 17.7193V17.2986H34.9319L34.8067 17.588L34.6815 17.2986H34.5726V17.7193H34.6495V17.402L34.7668 17.6756H34.8465L34.9639 17.4013V17.7193H35.0407Z" fill="#F69E1E"/>
</svg>
